<svg xmlns="http://www.w3.org/2000/svg" width="31" height="26" viewBox="0 0 31 26">
  <path fill="#FFFFFF" stroke="#FFFFFF" stroke-width=".66" d="M4.24558427,0 L4.14707883,0.134615316 L0.0492526858,6.28845831 L0,6.36538135 L0,6.46153515 L0,7.9999959 C0,9.37754904 0.927873881,10.55009 2.20652177,10.9423021 L2.20652177,23.6923079 C2.20653917,23.8622345 2.34765661,23.999983 2.52173916,24 L6.25509513,24 L12.6677989,24 L26.4782609,24 C26.6523434,23.999983 26.7934609,23.8622345 26.7934783,23.6923079 L26.7934783,10.9423021 C28.0721261,10.55009 29,9.37754904 29,7.9999959 L29,6.46153515 L29,6.36538135 L28.9507473,6.28845831 L24.8529212,0.134615316 L24.7544158,0 L24.5869565,0 L4.4130435,0 L4.24558427,0 Z M4.58050274,0.6153843 L24.4194973,0.6153843 L28.3695652,6.54807357 L28.3695652,7.9999959 C28.3695652,9.36901058 27.2503228,10.4615331 25.8478261,10.4615331 C24.4453294,10.4615331 23.326087,9.36901058 23.326087,7.9999959 L22.6956522,7.9999959 C22.6956522,9.36901058 21.5764098,10.4615331 20.1739131,10.4615331 C18.7714163,10.4615331 17.6521739,9.36901058 17.6521739,7.9999959 L17.0217391,7.9999959 C17.0217391,9.36901058 15.9024968,10.4615331 14.5,10.4615331 C13.0975033,10.4615331 11.9782609,9.36901058 11.9782609,7.9999959 L11.3478261,7.9999959 C11.3478261,9.36901058 10.2285837,10.4615331 8.82608698,10.4615331 C7.42359024,10.4615331 6.30434785,9.36901058 6.30434785,7.9999959 L5.67391307,7.9999959 C5.67391307,9.36901058 4.55467068,10.4615331 3.15217394,10.4615331 C1.74967733,10.4615331 0.630434783,9.36901058 0.630434783,7.9999959 L0.630434783,6.54807357 L4.58050274,0.6153843 Z M5.98913046,9.28845678 C6.49237818,10.3348039 7.56358144,11.0769174 8.82608698,11.0769174 C10.0885925,11.0769174 11.1597958,10.3348039 11.6630435,9.28845678 C12.1662912,10.3348039 13.2374945,11.0769174 14.5,11.0769174 C15.7625056,11.0769174 16.8337088,10.3348039 17.3369565,9.28845678 C17.8402043,10.3348039 18.9114075,11.0769174 20.1739131,11.0769174 C21.4364186,11.0769174 22.5076219,10.3348039 23.0108696,9.28845678 C23.5141173,10.3348039 24.5853205,11.0769174 25.8478261,11.0769174 C25.9533357,11.0769174 26.0601975,11.0771882 26.1630435,11.0673174 L26.1630435,23.3846157 L12.9239131,23.3846157 L12.9239131,13.8461283 C12.9238957,13.6762016 12.7827782,13.5384531 12.6086957,13.5384361 L6.30434785,13.5384361 C6.1302653,13.5384531 5.98914787,13.6762016 5.98913046,13.8461283 L5.98913046,23.3846157 L2.83695655,23.3846157 L2.83695655,11.067302 C2.93980253,11.0771789 3.04666438,11.076902 3.15217394,11.076902 C4.41467948,11.076902 5.48588274,10.3347885 5.98913046,9.28844139 L5.98913046,9.28845678 Z M15.7313179,13.5384361 C15.5688689,13.553381 15.4449486,13.6868562 15.4456522,13.8461283 L15.4456522,18.1538492 C15.4456696,18.3237758 15.586787,18.4615243 15.7608696,18.4615413 L22.6956522,18.4615413 C22.8697347,18.4615243 23.0108522,18.3237758 23.0108696,18.1538492 L23.0108696,13.8461283 C23.0108522,13.6762016 22.8697347,13.5384531 22.6956522,13.5384361 L15.7608696,13.5384361 C15.7510297,13.5379857 15.7411736,13.5379857 15.7313337,13.5384361 L15.7313179,13.5384361 Z M6.61956524,14.1538204 L12.2934783,14.1538204 L12.2934783,23.3846157 L6.61956524,23.3846157 L6.61956524,14.1538204 Z M16.076087,14.1538204 L22.3804348,14.1538204 L22.3804348,17.846157 L16.076087,17.846157 L16.076087,14.1538204 Z" transform="translate(1 1)"/>
</svg>
