<svg xmlns="http://www.w3.org/2000/svg" width="22" height="30" viewBox="0 0 22 30">
  <path fill="#FFFFFF" stroke="#FFFFFF" stroke-width=".84" d="M10.1639344,0 C7.26670295,-2.98057946e-16 4.91803279,2.40393299 4.91803279,5.36933462 L4.91803279,8.72516876 L0.327868852,8.72516876 C0.146791885,8.72516876 0,8.87541457 0,9.06075217 L0,23.8264224 C0,26.2358112 1.90829451,28.1890068 4.26229508,28.1890068 L15.7377049,28.1890068 C18.0917055,28.1890068 20,26.2358112 20,23.8264224 L20,9.06075217 C20,8.87541457 19.8532081,8.72516876 19.6721311,8.72516876 L15.4098361,8.72516876 L15.4098361,5.36933462 C15.4098361,2.40393299 13.0611659,0 10.1639344,0 Z M5.57377049,5.36933462 C5.57377046,3.69084091 6.44865075,2.13984874 7.86885243,1.30060188 C9.28905411,0.461355012 11.0388147,0.461355012 12.4590164,1.30060188 C13.8792181,2.13984874 14.7540984,3.69084091 14.7540984,5.36933462 L14.7540984,8.72516876 L5.57377049,8.72516876 L5.57377049,5.36933462 Z M19.3442623,9.39633558 L19.3442623,23.8264224 C19.3442623,25.865136 17.7295516,27.5178399 15.7377049,27.5178399 L4.26229508,27.5178399 C2.27044844,27.5178399 0.655737705,25.865136 0.655737705,23.8264224 L0.655737705,9.39633558 L4.91803279,9.39633558 L4.91803279,13.75892 C4.91803279,13.9442576 5.06482467,14.0945034 5.24590164,14.0945034 C5.42697861,14.0945034 5.57377049,13.9442576 5.57377049,13.75892 L5.57377049,9.39633558 L14.7540984,9.39633558 L14.7540984,13.75892 C14.7540984,13.9442576 14.9008902,14.0945034 15.0819672,14.0945034 C15.2630442,14.0945034 15.4098361,13.9442576 15.4098361,13.75892 L15.4098361,9.39633558 L19.3442623,9.39633558 Z" transform="translate(1 1)"/>
</svg>
