<svg xmlns="http://www.w3.org/2000/svg" width="25" height="22" viewBox="0 0 25 22">
  <path fill="#FFFFFF" d="M13.0816683,20.0901519 C13.0816683,20.0901519 13.179573,20.0501455 13.2312554,20.0003489 C14.0371973,19.2238154 14.8467544,18.4675039 15.8056421,17.5894929 C16.1387603,17.2844713 17.755265,15.8144681 18.1727669,15.4304283 C19.8609717,13.8775302 20.8437691,12.8831393 21.5985406,11.9242134 C22.7708468,10.4348158 23.2758621,9.13247425 23.2758621,7.51752527 C23.2758621,4.25204494 21.0281405,1.79427532 18.1250282,1.79427532 C16.5350336,1.79427532 14.8987689,2.63115233 13.8427478,3.9957424 L12.4999372,5.73092187 L11.1571266,3.9957424 C10.1010821,2.63112196 8.46492978,1.79427532 6.87497177,1.79427532 C3.97178284,1.79427532 1.72413793,4.25199232 1.72413793,7.51752527 C1.72413793,9.13247425 2.22915319,10.4348158 3.40145944,11.9242134 C4.15623095,12.8831393 5.13902832,13.8775302 6.8272331,15.4304283 C7.244735,15.8144681 8.8612397,17.2844713 9.19435789,17.5894929 C10.1506555,18.4651323 10.9584282,19.2197288 11.7622137,19.9940569 C11.8160744,20.0459437 11.9183548,20.0901789 11.9183548,20.0901789 C12.1805252,20.2441583 12.8191394,20.2443306 13.0816683,20.0901519 Z M11.2566938,21.7470692 C11.1627732,21.7064495 11.0595294,21.6552681 10.9393519,21.580491 C10.820204,21.5063546 10.7072166,21.4227559 10.5909781,21.3107773 C9.8237322,20.5716497 9.0355269,19.8339895 8.05544409,18.9365711 C7.97863069,18.8662364 7.82995716,18.730641 7.58591677,18.5082936 C7.46839534,18.4012188 6.96967259,17.9469413 6.85597073,17.8433549 C6.23225948,17.2751313 5.86288379,16.938086 5.68538642,16.7748147 C3.88938254,15.1227575 2.87617634,14.0883993 2.06766379,13.0611962 C0.648145991,11.2577201 0,9.56215928 0,7.51752527 C0,3.29838088 2.98289931,0 6.87497177,0 C8.99747487,0 11.1232054,1.0912979 12.4999372,2.87031034 C13.8766489,1.09132405 16.0024945,0 18.1250282,0 C22.0170326,0 25,3.29844319 25,7.51752527 C25,9.56215928 24.351854,11.2577201 22.9323362,13.0611962 C22.1238237,14.0883993 21.1106175,15.1227575 19.3146136,16.7748147 C19.1371162,16.938086 18.7677405,17.2751313 18.1456919,17.8418402 C18.0303274,17.9469413 17.5316047,18.4012188 17.4140832,18.5082936 C17.1700428,18.730641 17.0213693,18.8662364 16.9445559,18.9365711 C15.9618113,19.8364268 15.1718853,20.5757499 14.402595,21.3169692 C14.282206,21.4329653 14.1648227,21.5187218 14.0413403,21.5937498 C13.9166497,21.669512 13.8098812,21.7202218 13.7118191,21.7602925 L13.9290289,21.6527772 C13.1406267,22.1157926 11.8591178,22.1156892 11.0709481,21.6527772 L11.2566938,21.7470692 Z"/>
</svg>
